***************************************************************

[IMG]http://www.hotimg.org/images/67363952943939111394.png[/IMG]

***************************************************************

[IMG]http://www.hotimg.org/images/07964796533951254477.jpg[/IMG]

***************************************************************

FILM TITLE: A Monster in Paris (2011)  Un monstre à Paris (original title)

***************************************************************

Genre:  Animation | Adventure | Comedy    

Release:  12 October 2011 (Belgium)

Director: Bibo Bergeron

Writer: Bibo Bergeron, Stéphane Kazandjian (screenplay)

Stars:  Mathieu Chedid, Vanessa Paradis and Gad Elmaleh

Country:  France

Language:  French

Plot:
A animated movie set in Paris in the year 1910 and centered on a 
monster who lives in a garden and his love for a beautiful, young singer. Paris.
 	
IMDB Rating: http://www.imdb.com/title/tt0961097/
 
http://www.imdb.com/title/tt0961097/

****************************************************************

[URL=http://www.hotimg.org/viewer.php?file=09122476506985054679.png][IMG]http://www.hotimg.org/images/09122476506985054679_thumb.png[/IMG][/URL]
[URL=http://www.hotimg.org/viewer.php?file=85647057293791291985.png][IMG]http://www.hotimg.org/images/85647057293791291985_thumb.png[/IMG][/URL]
[URL=http://www.hotimg.org/viewer.php?file=12914528541162534862.png][IMG]http://www.hotimg.org/images/12914528541162534862_thumb.png[/IMG][/URL]
[URL=http://www.hotimg.org/viewer.php?file=62864763636555713297.png][IMG]http://www.hotimg.org/images/62864763636555713297_thumb.png[/IMG][/URL]
[URL=http://www.hotimg.org/viewer.php?file=79410515099226830456.png][IMG]http://www.hotimg.org/images/79410515099226830456_thumb.png[/IMG][/URL]

****************************************************************

General
Complete name                    : A Monster In Paris 2011 720p BDRip x264 ac3 (mp4) [GREYSHADOW].mp4
Format                           : MPEG-4
Format profile                   : Base Media
Codec ID                         : isom
File size                        : 3.55 GiB
Duration                         : 1h 31mn
Overall bit rate                 : 5576 Kbps
Encoded date                     : UTC 2012-02-18 13:54:37
Tagged date                      : UTC 2012-02-18 13:54:37

Video
ID                               : 1
Format                           : AVC
Format/Info                      : Advanced Video Codec
Format profile                   : High@L4.1
Format settings, CABAC           : Yes
Format settings, ReFrames        : 9 frames
Codec ID                         : avc1
Codec ID/Info                    : Advanced Video Coding
Duration                         : 1h 29mn
Bit rate                         : 5000 Kbps
Maximum bit rate                 : 22.2 Mbps
Width                            : 1280 pixels
Height                           : 688 pixels
Display aspect ratio             : 1.860
Frame rate mode                  : Constant
Frame rate                       : 23.976 fps
Color space                      : YUV
Chroma subsampling               : 4:2:0
Bit depth                        : 8 bits
Scan type                        : Progressive
Bits/(Pixel*Frame)               : 0.237
Stream size                      : 3.14 GiB (88%)
Title                            : AVC MPEG4 Video
Writing library                  : x264 core 120 r2164 da19765
Encoded date                     : UTC 2012-02-18 05:46:45
Tagged date                      : UTC 2012-02-18 13:56:14
Color primaries                  : BT.709-5, BT.1361, IEC 61966-2-4, SMPTE RP177
Transfer characteristics         : BT.709-5, BT.1361
Matrix coefficients              : BT.709-5, BT.1361, IEC 61966-2-4 709, SMPTE RP177

Audio
ID                               : 2
Format                           : AC-3
Format/Info                      : Audio Coding 3
Mode extension                   : CM (complete main)
Codec ID                         : ac-3
Duration                         : 1h 31mn
Bit rate mode                    : Constant
Bit rate                         : 640 Kbps
Channel(s)                       : 6 channels
Channel positions                : Front: L C R, Side: L R, LFE
Sampling rate                    : 48.0 KHz
Bit depth                        : 16 bits
Compression mode                 : Lossy
Stream size                      : 417 MiB (11%)
Title                            : AC3 5.1 640 kbps
Language                         : English
Encoded date                     : UTC 2012-02-18 13:56:10
Tagged date                      : UTC 2012-02-18 13:56:14

****************************************************************

Video Source: A Monster In Paris (2011) Blu-ray 1080p AVC DTS-HD5.1

Thanks: avproh (hdclub.org)

****************************************************************

I provide a small sample, so please download this to check your 
compatibility first if you are unsure.

****************************************************************

Hash: 1BF064CCFD6284995934C3E483A0D9A346702057

Trackers:
.udp://tracker.1337x.org:80/announce

****************************************************************